{"title":"The Tattoist 2007 DVDRip Xvid AC3 LKRG","uid":10141138,"size":731391766,"categoryP":"video","categoryS":"movies","magnet":"?xt=urn:btih:8bd00682571579a7b1208dcfebee1a68ed24cbe7&amp;dn=The+Tattoist+2007+DVDRip+Xvid+AC3+LKRG&amp;tr=udp%3A%2F%2Ftracker.openbittorrent.com%3A80&amp;tr=udp%3A%2F%2Fopen.demonii.com%3A1337&amp;tr=udp%3A%2F%2Ftracker.coppersurfer.tk%3A6969&amp;tr=udp%3A%2F%2Fexodus.desync.com%3A6969","seeders":2,"leechers":0,"uploader":".BONE.","files":2,"time":1399998826,"description":"\nRuntime ..........: 1h 29mn\nFile Size ........: 698 MiB\nResolution .......: 720 x 480 &lt;a href=&quot;\nhttp://www.imdb.com/title/tt0817228/&quot; rel=&quot;nofollow&quot; target=&quot;_NEW&quot;&gt;\nhttp://www.imdb.com/title/tt0817228/&lt;/a&gt;\nGenre ............: Horror,Thriller\nLanguage .........: English\nSubtitles ........: None\nComplete name : The Tattoist 2007 DVDRip Xvid AC3 LKRGTT_LKRG.avi\nFormat : AVI\nFormat/Info : Audio Video Interleave\nFile size : 698 MiB\nDuration : 1h 29mn\nOverall bit rate : 1 094 Kbps\nWriting application : VirtualDubMod 1.5.10.2 (build 2540/release)\nWriting library : VirtualDubMod build 2540/release\nVideo\nID : 0\nFormat : MPEG-4 Visual\nFormat profile : Advanced Simple@L5\nFormat settings, BVOP : 2\nFormat settings, QPel : No\nFormat settings, GMC : No warppoints\nFormat settings, Matrix : Default (H.263)\nMuxing mode : Packed bitstream\nCodec ID : XVID\nCodec ID/Hint : XviD\nDuration : 1h 29mn\nBit rate : 637 Kbps\nWidth : 720 pixels\nHeight : 480 pixels\nDisplay aspect ratio : 4.615\nFrame rate : 23.976 fps\nStandard : NTSC\nColor space : YUV\nChroma subsampling : 4:2:0\nBit depth : 8 bits\nScan type : Progressive\nCompression mode : Lossy\nBits/(Pixel*Frame) : 0.077\nStream size : 406 MiB (58%)\nWriting library : XviD 1.2.1 (UTC 2008-12-04)\nAudio\nID : 1\nFormat : AC-3\nFormat/Info : Audio Coding 3\nMode extension : CM (complete main)\nFormat settings, Endianness : Big\nCodec ID : 2000\nDuration : 1h 29mn\nBit rate mode : Constant\nBit rate : 448 Kbps\nChannel(s) : 6 channels\nChannel positions : Front: L C R, Side: L R, LFE\nSampling rate : 48.0 KHz\nBit depth : 16 bits\nCompression mode : Lossy\nStream size : 286 MiB (41%)\nAlignment : Split accross interleaves\nInterleave, duration : 42 ms (1.00 video frame)\nInterleave, preload duration : 500 ms","torrent":{"xt":"urn:btih:8bd00682571579a7b1208dcfebee1a68ed24cbe7","amp;dn":"The+Tattoist+2007+DVDRip+Xvid+AC3+LKRG","amp;tr":["udp%3A%2F%2Ftracker.openbittorrent.com%3A80","udp%3A%2F%2Fopen.demonii.com%3A1337","udp%3A%2F%2Ftracker.coppersurfer.tk%3A6969","udp%3A%2F%2Fexodus.desync.com%3A6969"],"infoHash":"8bd00682571579a7b1208dcfebee1a68ed24cbe7","infoHashBuffer":{"type":"Buffer","data":[139,208,6,130,87,21,121,167,177,32,141,207,235,238,26,104,237,36,203,231]},"announce":[],"urlList":[]}}